<?xml version="1.0" standalone="no"?><!DOCTYPE svg PUBLIC "-//W3C//DTD SVG 1.1//EN" "http://www.w3.org/Graphics/SVG/1.1/DTD/svg11.dtd"><svg t="1691393515183" class="icon" viewBox="0 0 1024 1024" version="1.1" xmlns="http://www.w3.org/2000/svg" p-id="4380" xmlns:xlink="http://www.w3.org/1999/xlink" width="200" height="200"><path d="M896 0H128a128 128 0 0 0-128 128v768a128 128 0 0 0 128 128h768a128 128 0 0 0 128-128V128a128 128 0 0 0-128-128zM128 960a64 64 0 0 1-64-64V384h256v576z m832-64a64 64 0 0 1-64 64H384V384h576z m0-576H64V128a64 64 0 0 1 64-64h768a64 64 0 0 1 64 64z" p-id="4381"></path></svg>