<?xml version="1.0" standalone="no"?><!DOCTYPE svg PUBLIC "-//W3C//DTD SVG 1.1//EN" "http://www.w3.org/Graphics/SVG/1.1/DTD/svg11.dtd"><svg t="1691393445737" class="icon" viewBox="0 0 1024 1024" version="1.1" xmlns="http://www.w3.org/2000/svg" p-id="2329" xmlns:xlink="http://www.w3.org/1999/xlink" width="200" height="200"><path d="M361.813333 505.173333c68.266667 0 116.053333 47.786667 116.053334 116.053334v286.72c0 68.266667-47.786667 116.053333-116.053334 116.053333H116.053333c-68.266667 0-116.053333-47.786667-116.053333-116.053333V621.226667c0-68.266667 47.786667-116.053333 116.053333-116.053334h245.76z m546.133334 143.36c68.266667 0 116.053333 47.786667 116.053333 116.053334v143.36c0 68.266667-47.786667 116.053333-116.053333 116.053333H655.36c-68.266667 0-116.053333-47.786667-116.053333-116.053333v-143.36c0-68.266667 47.786667-116.053333 116.053333-116.053334h252.586667zM116.053333 593.92c-13.653333 0-27.306667 13.653333-27.306666 27.306667v286.72c0 13.653333 13.653333 27.306667 27.306666 27.306666h245.76c13.653333 0 27.306667-13.653333 27.306667-27.306666V621.226667c0-13.653333-13.653333-27.306667-27.306667-27.306667H116.053333z m791.893334 143.36H655.36c-13.653333 0-27.306667 13.653333-27.306667 27.306667v143.36c0 13.653333 13.653333 27.306667 27.306667 27.306666h252.586667c13.653333 0 27.306667-13.653333 27.306666-27.306666v-143.36c0-13.653333-13.653333-27.306667-27.306666-27.306667z m0-737.28c68.266667 0 116.053333 47.786667 116.053333 116.053333V477.866667c0 68.266667-47.786667 116.053333-116.053333 116.053333H655.36c-68.266667 0-116.053333-47.786667-116.053333-116.053333V116.053333C539.306667 47.786667 587.093333 0 655.36 0h252.586667z m0 88.746667H655.36c-13.653333 0-27.306667 13.653333-27.306667 27.306666V477.866667c0 13.653333 13.653333 27.306667 27.306667 27.306666h252.586667c13.653333 0 27.306667-13.653333 27.306666-27.306666V116.053333c0-13.653333-13.653333-27.306667-27.306666-27.306666zM361.813333 0C430.08 0 477.866667 47.786667 477.866667 116.053333v218.453334c0 68.266667-47.786667 116.053333-116.053334 116.053333H116.053333C47.786667 443.733333 0 395.946667 0 334.506667V116.053333C0 47.786667 47.786667 0 116.053333 0h245.76z m0 88.746667H116.053333c-13.653333 0-27.306667 13.653333-27.306666 27.306666v218.453334c0 13.653333 13.653333 27.306667 27.306666 27.306666h245.76c13.653333 0 27.306667-13.653333 27.306667-27.306666V116.053333c0-13.653333-13.653333-27.306667-27.306667-27.306666z" fill="#222222" p-id="2330"></path></svg>