<?xml version="1.0" standalone="no"?><!DOCTYPE svg PUBLIC "-//W3C//DTD SVG 1.1//EN" "http://www.w3.org/Graphics/SVG/1.1/DTD/svg11.dtd"><svg t="1691372758008" class="icon" viewBox="0 0 1024 1024" version="1.1" xmlns="http://www.w3.org/2000/svg" p-id="2350" xmlns:xlink="http://www.w3.org/1999/xlink" width="200" height="200"><path d="M848 128A48 48 0 0 1 896 176v672A48 48 0 0 1 848 896H176A48 48 0 0 1 128 848V176A48 48 0 0 1 176 128zM810.666667 213.333333H213.333333v597.333334h597.333334V213.333333z m-85.333334 85.333334c0 9.834667-0.277333 20.906667-0.746666 33.152-0.512 12.288-1.130667 24.96-1.898667 37.952-0.746667 13.013333-1.450667 25.792-2.197333 38.314666a407.594667 407.594667 0 0 1-3.349334 34.282667h-19.306666L659.2 383.786667H554.666667v302.528c12.714667 2.474667 36.970667 4.906667 47.936 7.402666a175.232 175.232 0 0 1 31.957333 10.304V725.333333H389.418667v-21.333333a376.789333 376.789333 0 0 1 32.682666-10.325333c11.029333-2.986667 34.496-5.397333 47.232-7.402667V383.786667h-104.576l-38.912 58.56h-18.346666c-1.493333-9.813333-2.709333-21.034667-3.690667-33.536a1808.149333 1808.149333 0 0 1-4.394667-76.586667A840.810667 840.810667 0 0 1 298.666667 298.666667h426.666666z" fill="#040404" p-id="2351"></path></svg>